<svg id="Capa_1" data-name="Capa 1" xmlns="http://www.w3.org/2000/svg" xmlns:xlink="http://www.w3.org/1999/xlink" viewBox="0 0 536.5 130.98"><defs><style>.cls-1,.cls-11,.cls-9{fill:none;}.cls-2{fill:#ebb752;}.cls-3{clip-path:url(#clip-path);}.cls-4{fill:#fff;}.cls-5{fill:#d47b18;}.cls-6{fill:#bfbfbf;}.cls-7{fill:#af2500;}.cls-8{fill:#92908a;}.cls-9{stroke:#404040;}.cls-11,.cls-9{stroke-miterlimit:10;}.cls-10{clip-path:url(#clip-path-2);}.cls-11{stroke:#000;}.cls-12{fill:#fffc94;}</style><clipPath id="clip-path" transform="translate(-11.1 -3.73)"><rect class="cls-1" x="-18.14" y="-20.74" width="595.28" height="207.43"/></clipPath><clipPath id="clip-path-2" transform="translate(-11.1 -3.73)"><rect class="cls-1" x="92.12" y="69.41" width="11.38" height="19"/></clipPath></defs><title>logo hdc</title><polygon class="cls-2" points="184.28 15.4 193.08 15.4 193.08 53.89 184.28 53.89 184.28 39.04 166.96 39.04 166.96 53.89 158.16 53.89 158.16 15.4 166.96 15.4 166.96 30.25 184.28 30.25 184.28 15.4"/><g class="cls-3"><path class="cls-2" d="M212.27,41.07a17.08,17.08,0,1,1,17,17,17.06,17.06,0,0,1-17-17m25.35,0a8.28,8.28,0,0,0-16.55,0,8.28,8.28,0,0,0,16.55,0" transform="translate(-11.1 -3.73)"/><path class="cls-2" d="M253.57,57.62V48.83h16.78a1.65,1.65,0,0,0,0-3.3H263.2a10.45,10.45,0,1,1,0-20.9h14.57v8.8H263.2a1.65,1.65,0,1,0,0,3.3h7.15a10.45,10.45,0,0,1,0,20.89Z" transform="translate(-11.1 -3.73)"/><path class="cls-2" d="M319.08,41.18a17.17,17.17,0,0,1-17.05,17,16.21,16.21,0,0,1-5.72-1V68.62h-8.8V34.75a6.18,6.18,0,0,1,1.43-4.46A17.4,17.4,0,0,1,302,24.13a17.18,17.18,0,0,1,17.05,17.05m-8.8,0A8.39,8.39,0,0,0,302,32.93a8,8,0,0,0-5.39,2c-.28.28-.33.44-.33.55V47A7.83,7.83,0,0,0,302,49.43a8.38,8.38,0,0,0,8.25-8.25" transform="translate(-11.1 -3.73)"/><path class="cls-2" d="M326.56,15.89a4.73,4.73,0,1,1,4.73,4.72,4.69,4.69,0,0,1-4.73-4.72m.33,8.74h8.8v33h-8.8Z" transform="translate(-11.1 -3.73)"/><path class="cls-2" d="M366.21,33.43H354.66V47.18a1.63,1.63,0,0,0,1.65,1.65h9.9v8.79h-9.9a10.44,10.44,0,0,1-10.45-10.44v-28h8.8v5.5h11.55Z" transform="translate(-11.1 -3.73)"/><path class="cls-2" d="M393,24.63a10.45,10.45,0,0,1,10.45,10.45V50a7.63,7.63,0,0,1-7.65,7.64H382.88a10.45,10.45,0,1,1,0-20.89h11.77V35.08A1.62,1.62,0,0,0,393,33.43H376.83v-8.8Zm1.48,24.2a.15.15,0,0,0,.17-.17V44.81H382.88a2,2,0,0,0,0,4Z" transform="translate(-11.1 -3.73)"/><rect class="cls-2" x="399.67" y="9.9" width="8.8" height="43.99"/><path class="cls-2" d="M467.08,13.63h8.8V47.51A6.15,6.15,0,0,1,474.45,52a17.42,17.42,0,0,1-13.09,6.16,17,17,0,0,1,0-34.1,16.25,16.25,0,0,1,5.72,1Zm0,33.16V35.24a7.87,7.87,0,0,0-5.72-2.42,8.25,8.25,0,0,0,0,16.5,7.92,7.92,0,0,0,5.39-2c.27-.27.33-.44.33-.55" transform="translate(-11.1 -3.73)"/><path class="cls-2" d="M514.05,45l-20.79-.11a8.8,8.8,0,0,0,7.53,4.83A9.3,9.3,0,0,0,507,47.23l8.75,2.31a17,17,0,0,1-31.84-8.47,17,17,0,0,1,34,.06A3.83,3.83,0,0,1,514.05,45m-21.28-6.71,16.22.11a8.84,8.84,0,0,0-8.08-5.89,9.07,9.07,0,0,0-8.14,5.78" transform="translate(-11.1 -3.73)"/><rect class="cls-2" x="514.78" y="9.9" width="8.8" height="43.99"/><path class="cls-2" d="M168,104.38A20.64,20.64,0,0,1,206.49,94l-7.59,4.4a11.82,11.82,0,1,0,0,11.88l7.59,4.4A20.64,20.64,0,0,1,168,104.38" transform="translate(-11.1 -3.73)"/><path class="cls-2" d="M210.62,107.07a17.08,17.08,0,1,1,17,17.05,17.06,17.06,0,0,1-17-17.05m25.35,0a8.28,8.28,0,0,0-16.55,0,8.28,8.28,0,0,0,16.55,0" transform="translate(-11.1 -3.73)"/><path class="cls-2" d="M292.12,103v20.67h-8.79V103a4.07,4.07,0,1,0-8.14,0v20.67h-8.8V103a4.07,4.07,0,0,0-8.14,0v20.67h-8.8V103a12.86,12.86,0,0,1,21.34-9.68A12.85,12.85,0,0,1,292.12,103" transform="translate(-11.1 -3.73)"/><path class="cls-2" d="M331.78,107.18a17.17,17.17,0,0,1-17,17,16.25,16.25,0,0,1-5.72-1v11.38h-8.8V100.75a6.18,6.18,0,0,1,1.43-4.46,17.42,17.42,0,0,1,13.09-6.16,17.18,17.18,0,0,1,17,17.05m-8.8,0a8.38,8.38,0,0,0-8.25-8.25,8,8,0,0,0-5.39,2c-.27.28-.33.44-.33.55V113a7.85,7.85,0,0,0,5.72,2.42,8.38,8.38,0,0,0,8.25-8.25" transform="translate(-11.1 -3.73)"/><path class="cls-2" d="M338.66,108.39V90.63h8.8v17.76a6.93,6.93,0,0,0,13.86,0V90.63h8.8v17.76a15.73,15.73,0,0,1-31.46,0" transform="translate(-11.1 -3.73)"/><path class="cls-2" d="M399.54,99.43H388v13.75a1.62,1.62,0,0,0,1.65,1.64h9.9v8.8h-9.9a10.44,10.44,0,0,1-10.45-10.44V85.13H388v5.5h11.55Z" transform="translate(-11.1 -3.73)"/><path class="cls-2" d="M426.33,90.63a10.45,10.45,0,0,1,10.45,10.45V116a7.62,7.62,0,0,1-7.65,7.64H416.21a10.45,10.45,0,1,1,0-20.89H428v-1.65a1.62,1.62,0,0,0-1.65-1.65H410.16v-8.8Zm1.48,24.2a.15.15,0,0,0,.17-.17v-3.85H416.21a2,2,0,0,0,0,4Z" transform="translate(-11.1 -3.73)"/><path class="cls-2" d="M466.86,79.63h8.8v33.88a6.11,6.11,0,0,1-1.43,4.45,17.4,17.4,0,0,1-13.09,6.16,17.05,17.05,0,0,1,0-34.1,16.21,16.21,0,0,1,5.72,1Zm0,33.16V101.24a7.87,7.87,0,0,0-5.72-2.42,8.25,8.25,0,0,0,0,16.5,7.9,7.9,0,0,0,5.39-2c.28-.28.33-.44.33-.55" transform="translate(-11.1 -3.73)"/><path class="cls-2" d="M482.38,107.07a17.08,17.08,0,1,1,17,17.05,17.06,17.06,0,0,1-17-17.05m25.35,0a8.28,8.28,0,0,0-16.56,0,8.28,8.28,0,0,0,16.56,0" transform="translate(-11.1 -3.73)"/><path class="cls-2" d="M524.51,123.62v-23a6.41,6.41,0,0,1,1.43-4.46A17.1,17.1,0,0,1,539,90a16.82,16.82,0,0,1,8.58,2.37L543.15,100A7.55,7.55,0,0,0,539,98.82a7.94,7.94,0,0,0-5.55,2.2.61.61,0,0,0-.17.39v22.21Z" transform="translate(-11.1 -3.73)"/><path class="cls-4" d="M110.13,49.89a.72.72,0,0,1-.52-.3,29.76,29.76,0,0,0,.11-7.54,31.08,31.08,0,0,0-2-8.44c.19-.44.41-.68.68-.68,1,0,2.27,3.8,2.76,8.48s0,8.48-1,8.48" transform="translate(-11.1 -3.73)"/><path class="cls-2" d="M29.72,50.12c-.79-7.31-3-13.22-5-14.12a1.33,1.33,0,0,0-.67-.12l-3.44.35-2.09.21c.77-.07,1.57.6,2.33,1.85A12.93,12.93,0,0,1,21.66,40c.1.23.19.47.28.71a40.68,40.68,0,0,1,2.25,10,40.7,40.7,0,0,1-.07,10.44c0,.19-.06.37-.1.55-.47,2.44-1.29,4-2.35,4.09l5.52-.57a1,1,0,0,0,.43-.13c2-1,2.92-7.38,2.1-14.95" transform="translate(-11.1 -3.73)"/><path class="cls-5" d="M24,61.68c0-.18.07-.36.1-.55a40.7,40.7,0,0,0,.07-10.44,40.68,40.68,0,0,0-2.25-10c-.09-.24-.18-.48-.28-.71a12.93,12.93,0,0,0-.85-1.67c-.76-1.25-1.56-1.92-2.33-1.85-1.24.13-2.14,2.2-2.56,5.38l.88-.7.51-.4c1.11-.12,2.47,4,3.15,9.29.05.33.09.66.13,1,.62,5.79.18,10.59-1,10.72l-.58-.3-1-.52c1.09,3.09,2.44,5,3.7,4.86,1.06-.11,1.88-1.65,2.35-4.09" transform="translate(-11.1 -3.73)"/><path class="cls-2" d="M109.32,41.74a44.76,44.76,0,0,0-1.62-8.19c-1.16-3.79-2.68-6.2-4.09-6l-2.48.25L98.81,28l.51.46c.52.49,1,1,1.54,1.59l.21.24a2.48,2.48,0,0,1,.39.4,5.89,5.89,0,0,1,.51.69c1.31,2.13,2.5,6.25,3,11,.54,5,.22,9.42-.7,11.7a4,4,0,0,1-.59,1h0c-.19.31-.39.64-.62,1h0c-.23.36-.48.73-.76,1.12l4.47-.46c1.52-.15,2.53-3.2,2.77-7.62a47.08,47.08,0,0,0-.24-7.46" transform="translate(-11.1 -3.73)"/><path class="cls-4" d="M61.06,4.47l-.4.14-.08,0-.3.12a1.63,1.63,0,0,0-.25.1,1.74,1.74,0,0,0-.25.11c-.28.12-.56.26-.83.4a1.06,1.06,0,0,0-.2.12,9.1,9.1,0,0,0-1,.59l-.28.19a3.37,3.37,0,0,0-.38.28,5.93,5.93,0,0,0-.51.4l-.31.26a7.7,7.7,0,0,0-.59.56l-.39.39-.3.33L54.57,9c-.1.12-.2.25-.29.38a4.5,4.5,0,0,0-.3.42c-.21.3-.4.62-.59.95l-.17.31c-.17.31-.33.64-.47,1-.06.14-.12.28-.17.43a6,6,0,0,0-.26.71,3.45,3.45,0,0,0-.14.42q-.12.41-.21.81a2.82,2.82,0,0,0-.07.31,4.54,4.54,0,0,0-.09.51,2.79,2.79,0,0,0-.07.4l0,.26c0,.31-.06.62-.08.93s0,.46,0,.69a12.56,12.56,0,0,0,.08,1.5c0,.19.05.39.08.58a1,1,0,0,0,0,.16c0,.19.07.4.11.59a13.23,13.23,0,0,0,.49,1.74,4.28,4.28,0,0,0,.17.46.43.43,0,0,0,0,.13,1.07,1.07,0,0,0,.07.19c.13.32.28.63.44.94a3.42,3.42,0,0,0,.23.42,1.67,1.67,0,0,0,.12.23l.14.22c.14.25.3.48.46.72l0,.05c.15.22.31.43.48.64a.7.7,0,0,0,.13.16c.13.18.28.34.43.51l.1.12c.18.19.37.39.56.57a5.33,5.33,0,0,0,.42.4l.21.19.22.18c.15.13.3.24.45.36l.47.34.48.33c.16.1.33.21.5.3s.33.19.5.28l.52.26h0c.18.09.35.17.53.24l.54.22.55.19a11.22,11.22,0,0,0,1.13.33l.58.13c.38.07.78.14,1.17.18a3.88,3.88,0,0,0,.48,0h.12a8.78,8.78,0,0,0,1.15,0,10.69,10.69,0,0,0,1.27-.07A13.82,13.82,0,0,0,79.5,19.16a13.4,13.4,0,0,0,0-3A14,14,0,0,0,64.21,3.8H64.1c-.32,0-.63.09-.95.14l-1.48.33-.61.19m4.76,2.08A11.06,11.06,0,0,1,76.88,17.61a9.46,9.46,0,0,1-.06,1.07,11.06,11.06,0,0,1-11,10,11.67,11.67,0,0,1-1.18-.07,11,11,0,0,1-9.77-9.53,9.9,9.9,0,0,1-.1-1.45A11,11,0,0,1,62.29,7.13a10.89,10.89,0,0,1,3.53-.58" transform="translate(-11.1 -3.73)"/><path class="cls-6" d="M64.57,31.66a.25.25,0,0,0,.12,0l0-.21h-.12a3.88,3.88,0,0,1-.48,0c-.39,0-.79-.11-1.17-.18l-.58-.13a11.22,11.22,0,0,1-1.13-.33l-.55-.19-.54-.22c-.18-.07-.35-.15-.53-.24h0c-.17-.09-.35-.17-.52-.27a4.82,4.82,0,0,1-.5-.27l-.5-.3c-.16-.11-.32-.21-.47-.33l-.48-.34-.45-.36c-.07,0-.14-.12-.21-.18l-.22-.19a5.33,5.33,0,0,1-.42-.4c-.19-.18-.38-.38-.56-.57l-.1-.12c-.15-.17-.3-.33-.43-.51s-.09-.1-.13-.16c-.17-.21-.33-.42-.48-.64l0-.05c-.16-.24-.32-.47-.46-.72l-.14-.22a1.67,1.67,0,0,1-.12-.23,3.42,3.42,0,0,1-.23-.42c-.16-.31-.31-.62-.44-.94a1.07,1.07,0,0,1-.07-.19.43.43,0,0,1,0-.13,4.28,4.28,0,0,1-.17-.46,13.23,13.23,0,0,1-.49-1.74c0-.19-.07-.4-.11-.6a.77.77,0,0,1,0-.15c0-.19-.06-.39-.08-.58a12.68,12.68,0,0,1-.08-1.5c0-.23,0-.46,0-.69s0-.62.08-.93l0-.27a2.92,2.92,0,0,1,.07-.39,4.17,4.17,0,0,1,.09-.51,2.82,2.82,0,0,1,.07-.31q.09-.4.21-.81a3.45,3.45,0,0,1,.14-.42,6,6,0,0,1,.26-.71c.05-.15.11-.29.17-.43.15-.32.3-.65.47-1a3.07,3.07,0,0,1,.17-.31c.19-.33.38-.65.59-.95a4.5,4.5,0,0,1,.3-.42c.09-.13.19-.26.29-.38s.29-.36.45-.54l.29-.33c.13-.14.25-.26.39-.39a8.08,8.08,0,0,1,.6-.57L56.6,7c.17-.15.34-.28.51-.41s.25-.19.38-.27l.28-.19a11.2,11.2,0,0,1,1-.6l.2-.11c.27-.14.55-.28.83-.4L60,4.85l.25-.09.3-.12s.05,0,.08,0l.4-.14.61-.19,0-.22h-.07A13.81,13.81,0,0,0,49.16,19.28a11.19,11.19,0,0,0,.18,1.16A14,14,0,0,0,64.57,31.66" transform="translate(-11.1 -3.73)"/><path class="cls-6" d="M62.84,4l.31,0,.24-.05-1.75.16,0,.22A11.71,11.71,0,0,1,62.84,4" transform="translate(-11.1 -3.73)"/><path class="cls-6" d="M61.67,4.28,63.15,4l-.31,0a11.71,11.71,0,0,0-1.17.28" transform="translate(-11.1 -3.73)"/><path class="cls-7" d="M54.77,17.61a9.9,9.9,0,0,0,.1,1.45,11,11,0,0,0,9.77,9.53,11.5,11.5,0,0,0,1.18.07,11.06,11.06,0,0,0,11-10,9.46,9.46,0,0,0,.06-1.07A11.06,11.06,0,0,0,65.82,6.55a10.89,10.89,0,0,0-3.53.58,11,11,0,0,0-7.52,10.48" transform="translate(-11.1 -3.73)"/><path class="cls-4" d="M19.59,61.73c1.18-.13,1.62-4.93,1-10.72,0-.34-.08-.67-.13-1-.68-5.32-2-9.41-3.15-9.29l-.51.4-.88.7-1.2,1-1,.76a.09.09,0,0,1,0,.05l.05,0a.3.3,0,0,1,.12.11l.06.08a4,4,0,0,1,.39.92c0,.1.07.2.1.31.12.4.24.88.35,1.42,0,.1.05.2.07.3.13.61.25,1.29.36,2,0,.23.08.46.11.7s.08.55.11.83.05.45.09.68,0,.35.05.53,0,.46.07.68v0c0,.34.07.66.09,1s.06.74.08,1.09,0,.6,0,.89c0,.12,0,.24,0,.36v.19A1.93,1.93,0,0,1,16,56c0,.17,0,.34,0,.51,0,.66,0,1.24-.05,1.71,0,.14,0,.28,0,.4a2.15,2.15,0,0,1-.28,1,.6.6,0,0,0,0,.12L18,60.91l1,.52Z" transform="translate(-11.1 -3.73)"/><path class="cls-8" d="M15.91,58.19c0-.47.05-1,.05-1.71,0-.17,0-.34,0-.51a1.93,1.93,0,0,0,0-.24v-.19c0-.12,0-.24,0-.36,0-.29,0-.59,0-.89s0-.72-.08-1.09-.05-.64-.09-1v0c0-.22,0-.45-.07-.68s0-.35-.05-.53-.06-.46-.09-.68-.07-.56-.11-.83-.07-.47-.11-.7c-.11-.72-.23-1.4-.36-2,0-.1,0-.2-.07-.3-.11-.54-.23-1-.35-1.42,0-.11-.07-.21-.1-.31A4,4,0,0,0,14,43.8L14,43.72a.3.3,0,0,0-.12-.11l-.05,0h0c-.58.05-.66,3.7-.17,8.14,0,.23,0,.45.07.68.49,4.11,1.29,7.3,1.84,7.24a.14.14,0,0,0,.12-.07,2.15,2.15,0,0,0,.28-1c0-.12,0-.26,0-.4" transform="translate(-11.1 -3.73)"/><path class="cls-9" d="M103.64,55.19a3.88,3.88,0,0,0,.59-1.06,2.64,2.64,0,0,1-.15.29Z" transform="translate(-11.1 -3.73)"/><path class="cls-4" d="M33.51,27.61l.34-.25-.34.25" transform="translate(-11.1 -3.73)"/><path class="cls-4" d="M24.68,36c.16-.21.32-.39.48-.59-.18.21-.35.41-.48.59" transform="translate(-11.1 -3.73)"/><path class="cls-4" d="M33.51,27.61a41.39,41.39,0,0,0-3.57,2.86,42.4,42.4,0,0,0-4.78,4.94,80.76,80.76,0,0,1,8.35-7.8" transform="translate(-11.1 -3.73)"/><path class="cls-4" d="M103,56.19c.23-.35.43-.68.62-1h0l.44-.77a2.64,2.64,0,0,0,.15-.29c.92-2.27,1.24-6.69.7-11.69-.52-4.8-1.71-8.91-3-11-.17-.21-.33-.42-.5-.62l-.33-.39-.07-.08-.21-.24c-.51-.57-1-1.1-1.54-1.59L98.75,28c-.36-.32-.72-.62-1.08-.91a29.46,29.46,0,0,0-3.55-2.39h0c-.8-.46-1.58-.86-2.34-1.25s-1.35-.65-2-.95A42.85,42.85,0,0,0,79.5,19.16,13.82,13.82,0,0,1,67.09,31.4a10.69,10.69,0,0,1-1.27.07,8.31,8.31,0,0,1-1.13.17.25.25,0,0,1-.12,0A14,14,0,0,1,49.34,20.45a50.72,50.72,0,0,0-15.49,6.91l-.34.25a79.68,79.68,0,0,0-8.35,7.8c-.16.2-.32.38-.48.59,2.08.9,4.25,6.81,5,14.12.82,7.57-.11,14-2.1,14.95A32.51,32.51,0,0,0,37.73,71.4a40.18,40.18,0,0,0,5.71,2,58,58,0,0,0,7.4,1.48A63.69,63.69,0,0,0,71,74.66a55.42,55.42,0,0,0,16.41-5.29C88.15,69,89,68.55,89.94,68l.19-.11c.21-.12.43-.24.65-.38a37.65,37.65,0,0,0,10-8.32c.51-.61,1-1.21,1.38-1.77l.1-.14c.28-.39.53-.76.76-1.11ZM98.35,53.8C69.77,62,41.5,60.15,41.5,60.15c-1.07.11-2.4-4.19-3-9.62s-.17-9.92.9-10c0,0,29.62-8.24,56.86-6.36,1.07-.11,2.4,4.2,3,9.63s.16,9.91-.91,10" transform="translate(-11.1 -3.73)"/><path d="M96.29,34.14C69.05,32.26,39.43,40.5,39.43,40.5c-1.07.11-1.47,4.6-.9,10s1.9,9.73,3,9.62c0,0,28.27,1.81,56.85-6.35,1.07-.12,1.48-4.61.91-10s-1.9-9.74-3-9.63" transform="translate(-11.1 -3.73)"/><path class="cls-8" d="M101.21,58.72c-.48.49-1,1-1.59,1.46a9.24,9.24,0,0,1-.78,1.18c.66-.67,1.31-1.36,2-2.12l.42-.52" transform="translate(-11.1 -3.73)"/><path class="cls-8" d="M93.84,65.6c-1.06.74-2.09,1.4-3,2-.22.14-.44.26-.65.38l-.19.11c-.94.52-1.79,1-2.52,1.34A55.55,55.55,0,0,1,71,74.68a63.61,63.61,0,0,1-20.15.26,57.81,57.81,0,0,1-7.41-1.48,40.18,40.18,0,0,1-5.71-2,36,36,0,0,1-8.12-4.63c-.66-.52-1.33-1.07-2-1.7a2.85,2.85,0,0,0,1.16-1.43,6,6,0,0,0,.27-.68c1-2.66,1.26-7.44.68-12.84,0-.21,0-.42-.07-.63-.75-6.16-2.46-11.21-4.23-12.95,0-.3.2-1.44.25-1.71h0c.08-.08.22-.07.39,0,2,1.62,3.94,6.94,5,13.61.09.58.17,1.16.24,1.76.74,5.92.52,11.2-.42,14.26,6.49,4.7,18.55,7.86,32.36,7.86,12.66,0,23.84-2.66,30.62-6.72" transform="translate(-11.1 -3.73)"/><path class="cls-8" d="M25.44,36.56c-.72-.67-.77-.51-.76-.56s.91-1.12.91-1.12.18-.12.19-.1" transform="translate(-11.1 -3.73)"/><path class="cls-6" d="M13.9,52.22c0-.23-.05-.45-.08-.68-.42-3.87-.41-7.13,0-7.95h-.07c-.58.05-.66,3.7-.17,8.14,0,.23,0,.45.07.68.49,4.11,1.29,7.3,1.84,7.24a.13.13,0,0,0,.12-.07.36.36,0,0,0,.08-.12c-.54-.2-1.3-3.28-1.77-7.23" transform="translate(-11.1 -3.73)"/><path class="cls-5" d="M107,48.43a40.06,40.06,0,0,0-1.12-7.18c-1.26-5.2-3.24-9.55-5.12-11.7a5.7,5.7,0,0,0-.71-.69,2.94,2.94,0,0,0-.52-.39l-.29-.23L98.94,28l-.16,0c.17.14.34.3.51.46.52.49,1,1,1.55,1.58.06.08.14.16.21.24a5.24,5.24,0,0,1,.39.41,5.89,5.89,0,0,1,.5.69c1.32,2.13,2.5,6.24,3,11a41.34,41.34,0,0,1,.23,6.35,17,17,0,0,1-.93,5.34,4.35,4.35,0,0,1-.58,1.06h0c-.18.32-.39.65-.62,1s-.48.73-.76,1.12l2.9-.3,1.58-.16c.9-.09,1.62-1.21,2.11-3L107,52.52a32.59,32.59,0,0,0,.07-4.09" transform="translate(-11.1 -3.73)"/><path class="cls-2" d="M20.57,36.24l-2.09.2c-1.24.13-2.14,2.21-2.56,5.38l-1.2,1L13.08,28.32l6.51-.69Z" transform="translate(-11.1 -3.73)"/><path class="cls-5" d="M13.77,43.56l0,0h-.06c-.58,0-.66,3.7-.17,8.14,0,.23,0,.45.07.68h0L11.1,30.21l2-1.87L14.72,42.8Z" transform="translate(-11.1 -3.73)"/><path class="cls-2" d="M94.15,24.69a29.37,29.37,0,0,1,3.54,2.39c.36.29.73.59,1.08.91l2.32-.23-1-8.77-6.51.69.56,5Z" transform="translate(-11.1 -3.73)"/><path class="cls-5" d="M93.57,19.69l-2,1.88.22,1.88c.76.39,1.54.79,2.33,1.25Z" transform="translate(-11.1 -3.73)"/><path class="cls-4" d="M97.57,82.33l-.07-.7h0l-.09-.79a7.19,7.19,0,0,0-7.29-6.29,3.71,3.71,0,0,0-.47,0h-.21l-29.84,3a7.1,7.1,0,0,0-6.48,6.8,1.85,1.85,0,0,0,0,.23,6.12,6.12,0,0,0,0,.85L54,93.35a7.19,7.19,0,0,0,8,6.25l29.83-3a7.11,7.11,0,0,0,6.49-6.8,3.25,3.25,0,0,0,0-.54,4.53,4.53,0,0,0,0-.52Z" transform="translate(-11.1 -3.73)"/><path class="cls-9" d="M97.57,82.33l-.07-.7h0l-.09-.79a7.19,7.19,0,0,0-7.29-6.29,3.71,3.71,0,0,0-.47,0h-.21l-29.84,3a7.1,7.1,0,0,0-6.48,6.8,1.85,1.85,0,0,0,0,.23,6.12,6.12,0,0,0,0,.85L54,93.35a7.19,7.19,0,0,0,8,6.25l29.83-3a7.11,7.11,0,0,0,6.49-6.8,3.25,3.25,0,0,0,0-.54,4.53,4.53,0,0,0,0-.52Z" transform="translate(-11.1 -3.73)"/><path class="cls-4" d="M100.53,84.05c-.68-6.28-4.36-11.69-9.85-15.49l-.24-.17-.07,0c-.93.52-1.79,1-2.52,1.33A55.26,55.26,0,0,1,71.43,75a63.7,63.7,0,0,1-20.15.25,57.16,57.16,0,0,1-7.4-1.47c-.09.1-.19.2-.28.31.88.8,1.51,2.84,1.51,5.24,0,3.08-1,5.59-2.32,5.59a14.85,14.85,0,0,0-4.87,4.2c0,.43,0,.87.1,1.31a21.19,21.19,0,0,0,7.78,13.91,12,12,0,0,1,4-2.93,11.11,11.11,0,0,1,3.5-.93c6.52-.66,12.47,4.29,13.85,11.29a42.18,42.18,0,0,0,4.74-.21,39.34,39.34,0,0,0,5.76-1c.24,0,.47-.11.7-.18A35.55,35.55,0,0,0,90.9,104.2a28.06,28.06,0,0,0,5.65-5.84,21.07,21.07,0,0,0,4.09-12.14h0V86c0-.63,0-1.26-.11-1.9" transform="translate(-11.1 -3.73)"/><path class="cls-8" d="M81.55,107a59.76,59.76,0,0,1-10.4,1.36c-2.34.16,1.34.26-1.65,0S65.35,106,63,104a14,14,0,0,1,2.84,3.88,15.31,15.31,0,0,1,1.33,3.86c.87,0,1.75,0,2.64,0,.7,0,1.39-.08,2.1-.15a39.34,39.34,0,0,0,5.76-1l.7-.19a35.37,35.37,0,0,0,12.53-6.14,31,31,0,0,0,3-2.69A37.58,37.58,0,0,1,81.55,107" transform="translate(-11.1 -3.73)"/><path class="cls-8" d="M43.12,96.05a18,18,0,0,1-1.8-5.42c0-.15,0-.29-.07-.44s0-.22,0-.33h0a5.56,5.56,0,0,1,.86-3.31,4.55,4.55,0,0,1,.69-.94,4.22,4.22,0,0,1,.92-.87l0-.34a1.27,1.27,0,0,1-.93.49s-.32.16-.82.47l-.09.06a15.19,15.19,0,0,0-4,3.68c0,.43,0,.87.1,1.31a21.19,21.19,0,0,0,7.78,13.91,12.33,12.33,0,0,1,2.51-2.11,16,16,0,0,1-5.19-6.15" transform="translate(-11.1 -3.73)"/><path d="M96.34,88.75c0,.16,0,.31,0,.47-.16,2.92-2.78,5.39-6.27,5.7l-28.84,2.6c-3.84.35-7.29-2-7.7-5.36l-.82-6.74a5.85,5.85,0,0,1,0-.59,1.41,1.41,0,0,1,0-.2c.16-2.92,2.78-5.38,6.26-5.69l28.84-2.61.22,0h.44c3.58,0,6.66,2.27,7,5.39l.09.68h0l.05.45.68,5.6c0,.11,0,.22,0,.32" transform="translate(-11.1 -3.73)"/><path class="cls-4" d="M61.92,125.69a11.52,11.52,0,0,1-6,2.46c-6.94.71-13.24-5-14.07-12.65a15.38,15.38,0,0,1,.57-6.13,13.76,13.76,0,0,1,3-5.21,11.71,11.71,0,0,1,7.52-3.87c6.52-.66,12.48,4.3,13.86,11.29.09.45.16.9.21,1.37a14.2,14.2,0,0,1-5,12.74" transform="translate(-11.1 -3.73)"/><path class="cls-8" d="M45.41,118.11c-2.77-5.93-1.6-12.54,2.48-16.08a11.93,11.93,0,0,0-2.53,2.13,13.76,13.76,0,0,0-3,5.21,15.18,15.18,0,0,0-.57,6.13c.83,7.69,7.13,13.35,14.07,12.65a11.37,11.37,0,0,0,5.77-2.29c-5.88,2.46-13.08-1-16.27-7.75" transform="translate(-11.1 -3.73)"/><path class="cls-4" d="M104.29,112.16a14.7,14.7,0,0,1-6,10.47,11.87,11.87,0,0,1-8.07,2.18c-6.77-.68-11.64-7.19-11.09-14.66A35.55,35.55,0,0,0,91.67,104a28.31,28.31,0,0,0,5.65-5.84c4.69,2.4,7.63,7.92,7,14" transform="translate(-11.1 -3.73)"/><path class="cls-8" d="M103,116.91a13.37,13.37,0,0,1-10.69,5.23A12.9,12.9,0,0,1,79.13,110.3c-.46,7.4,4.38,13.8,11.09,14.48a11.83,11.83,0,0,0,8.07-2.19,14.17,14.17,0,0,0,4.67-5.67h0" transform="translate(-11.1 -3.73)"/><path class="cls-4" d="M61.92,125.69c-.26,3.61-1.91,6.66-4.81,8.13-5.21,2.65-12.49-.83-16.25-7.76-3.48-6.42-2.72-13.56,1.55-16.69a15.38,15.38,0,0,0-.57,6.13c.83,7.69,7.13,13.36,14.07,12.65a11.52,11.52,0,0,0,6-2.46" transform="translate(-11.1 -3.73)"/><path class="cls-8" d="M43.46,125.35c-3.68-5-4.45-11-2.28-14.87-3.15,3.51-3.43,9.83-.32,15.58,3.76,6.93,11,10.41,16.25,7.76a8.23,8.23,0,0,0,3.73-3.91,6.8,6.8,0,0,1-.94.83c-4.5,3.29-11.86.87-16.44-5.39" transform="translate(-11.1 -3.73)"/><path class="cls-4" d="M98.34,122.56c-1.29,4.68-4.51,8.11-8.61,8.53-5.85.58-11.28-5.26-12.11-13a17.53,17.53,0,0,1,.87-7.78l.69-.18c-.55,7.47,4.32,14,11.09,14.66a11.86,11.86,0,0,0,8.07-2.18" transform="translate(-11.1 -3.73)"/><path class="cls-4" d="M45,79.18c0,3.08-1,5.59-2.32,5.59A14.72,14.72,0,0,0,37.78,89a14.14,14.14,0,0,0-1.3,2.08c-1.26,2.52-2.22,4.76-2.81,6.2-1.63-3-5.28-5.13-9.53-5.13a12.26,12.26,0,0,0-2.29.22,12.08,12.08,0,0,0-2.73.86c-.19.06-.37.12-.54.19l-.09,0-.06,0a31.1,31.1,0,0,1,3.47-5.69A41.69,41.69,0,0,1,33.4,77.38a25.34,25.34,0,0,1,9-3.75,1.51,1.51,0,0,1,.22,0h.06a1.23,1.23,0,0,1,.82.35c.88.8,1.5,2.84,1.5,5.24" transform="translate(-11.1 -3.73)"/><path class="cls-4" d="M34.3,100.7c0,4.79-4.68,8.67-10.45,8.67s-10.43-3.88-10.43-8.67c0-3.26,2.19-6.11,5.42-7.58a11.84,11.84,0,0,1,2.72-.86A12.26,12.26,0,0,1,23.85,92a10.7,10.7,0,0,1,9.53,5.14,7.34,7.34,0,0,1,.92,3.53" transform="translate(-11.1 -3.73)"/><path class="cls-8" d="M19.69,106.43c-3.66-2.78-5.3-7.07-4.4-10.63a7.59,7.59,0,0,0-1.87,4.9c0,4.79,4.67,8.67,10.44,8.67a12.29,12.29,0,0,0,3.42-.48,11.74,11.74,0,0,1-7.59-2.46" transform="translate(-11.1 -3.73)"/><path class="cls-8" d="M33.45,77.31A41.67,41.67,0,0,0,22,87.57a31.1,31.1,0,0,0-3.47,5.69l.06,0,.09,0a4.29,4.29,0,0,1,.54-.19,12.1,12.1,0,0,1,2.73-.87l.51-.07a32,32,0,0,1,4.41-8,29,29,0,0,1,12.11-9.69,29.91,29.91,0,0,0-5.48,2.77" transform="translate(-11.1 -3.73)"/><path class="cls-4" d="M117.78,82.87l0,0-.08,0c-.17,0-.36-.07-.57-.1a12.6,12.6,0,0,0-2.79-.41,13.5,13.5,0,0,0-2.28.11c-4.16.56-7.39,2.94-8.52,5.88-.67-1-1.67-2.49-2.92-4.16a16.55,16.55,0,0,0-.11-1.72c-.68-5.71-4.32-10.63-9.75-14.08a.85.85,0,0,1,.34-.11h.28a27,27,0,0,1,9.35,2.18,42.29,42.29,0,0,1,12.83,7.69,29,29,0,0,1,4.27,4.65" transform="translate(-11.1 -3.73)"/><g class="cls-10"><g class="cls-10"><path class="cls-8" d="M102.6,83.13a19.41,19.41,0,0,0,.9,5.28c-.32-.49-.73-1.08-1.19-1.76l-.1-.13a.71.71,0,0,0-.1-.14c-.46-.65-1-1.37-1.53-2.13a16.73,16.73,0,0,0-.11-1.72c-.62-5.2-3.7-9.74-8.35-13.12a14.85,14.85,0,0,1,7.9,6.4,16.12,16.12,0,0,1,2.56,7.26.32.32,0,0,1,0,.06" transform="translate(-11.1 -3.73)"/></g></g><path class="cls-4" d="M114.69,98.11c-5.64.77-10.81-2.1-11.55-6.4a6.14,6.14,0,0,1,.35-3.29c1.13-2.93,4.36-5.32,8.52-5.88a13.5,13.5,0,0,1,2.28-.11,12.6,12.6,0,0,1,2.79.41c3.39.9,6,3.16,6.47,6.09.75,4.31-3.23,8.41-8.86,9.18" transform="translate(-11.1 -3.73)"/><path class="cls-8" d="M114.49,96.92c-6-.36-13-3.43-10.61-9.29a8.26,8.26,0,0,0-.39.79,6.14,6.14,0,0,0-.35,3.29c.74,4.3,5.91,7.17,11.55,6.4A12.3,12.3,0,0,0,120.13,96a12.82,12.82,0,0,1-5.64.89" transform="translate(-11.1 -3.73)"/><polygon class="cls-2" points="51.94 78.68 54.57 78.38 55.92 89.52 53.29 89.82 52.77 85.53 47.59 86.12 48.11 90.42 45.48 90.72 44.13 79.57 46.76 79.27 47.28 83.57 52.46 82.98 51.94 78.68"/><path class="cls-2" d="M72.76,92.76a2.36,2.36,0,0,1-2.94-2.25l-.77-6.36a2.32,2.32,0,0,1,2.32-2.85l2.8-.32a5.9,5.9,0,0,1,6.61,5,5.82,5.82,0,0,1-5.23,6.41Zm-.31-2.55,2.8-.32a3.25,3.25,0,0,0,2.9-3.56,3.29,3.29,0,0,0-3.68-2.8l-2.79.31Z" transform="translate(-11.1 -3.73)"/><path class="cls-2" d="M82.1,86.12a6.08,6.08,0,0,1,5.45-6.67,6.3,6.3,0,0,1,5.71,2.36l-2.12,1.54A3.57,3.57,0,0,0,87.86,82a3.43,3.43,0,0,0-3.12,3.82,3.6,3.6,0,0,0,6.82,1l2.42,1A6.27,6.27,0,0,1,82.1,86.12" transform="translate(-11.1 -3.73)"/><path class="cls-4" d="M52.42,42.33a6.17,6.17,0,1,0,6.36,6.17,6.28,6.28,0,0,0-6.36-6.17" transform="translate(-11.1 -3.73)"/><path class="cls-11" d="M52.42,42.33a6.17,6.17,0,1,0,6.36,6.17A6.28,6.28,0,0,0,52.42,42.33Z" transform="translate(-11.1 -3.73)"/><path class="cls-4" d="M86.72,38.14a6.17,6.17,0,1,0,6.37,6.17,6.27,6.27,0,0,0-6.37-6.17" transform="translate(-11.1 -3.73)"/><path class="cls-11" d="M86.72,38.14a6.17,6.17,0,1,0,6.37,6.17A6.27,6.27,0,0,0,86.72,38.14Z" transform="translate(-11.1 -3.73)"/><path class="cls-4" d="M57.74,15.54c1.47-.37,3.1-.73,4.85-1l.58-.1c-.2-1.65-.39-3.27-.61-4.87V9.44a6.57,6.57,0,0,1,2.53-.69,17,17,0,0,1,3.15-.25l0,.07q.48,2.49.86,5.2c1.86-.1,3.58-.12,5.14-.08a19.19,19.19,0,0,1,.59,5c0,.17,0,.34,0,.51l-.13.71c-1.52,0-3.15.08-4.87.21.17,2,.28,4,.33,5.87a10.71,10.71,0,0,1-2.94.56,14,14,0,0,1-3,.15c-.11-1.93-.24-3.91-.42-5.92l-.49.08c-1.72.26-3.35.57-4.87.9l-.11-.48c-.18-1-.3-1.88-.38-2.62a19.8,19.8,0,0,1-.19-3.11" transform="translate(-11.1 -3.73)"/><path class="cls-8" d="M81.59,124.74a15.37,15.37,0,0,1-4-8.53c0,.6,0,1.21.1,1.83.83,7.8,6.25,13.63,12.11,13a8.53,8.53,0,0,0,4.39-1.83c-3.34,1.67-8.64-.14-12.56-4.52" transform="translate(-11.1 -3.73)"/><path class="cls-12" d="M93.61,79.64a5,5,0,0,0-4.25-2.49,10.62,10.62,0,0,1,2.44,1,10.42,10.42,0,0,1,1.85,1.57" transform="translate(-11.1 -3.73)"/><path class="cls-12" d="M98.17,41.84c-1-6.51-3.24-6.46-3.24-6.46a9,9,0,0,1,1.85,2.52A31.7,31.7,0,0,1,98.2,42" transform="translate(-11.1 -3.73)"/></g></svg>