<?xml version="1.0" encoding="utf-8"?>
<!-- Generator: Adobe Illustrator 23.0.5, SVG Export Plug-In . SVG Version: 6.00 Build 0)  -->
<svg version="1.1" id="Capa_1" xmlns="http://www.w3.org/2000/svg" xmlns:xlink="http://www.w3.org/1999/xlink" x="0px" y="0px"
	 viewBox="0 0 293.96 319.46" style="enable-background:new 0 0 293.96 319.46;" xml:space="preserve">
<style type="text/css">
	.st0{fill:#FFFFFF;}
	.st1{fill:#D5B15A;}
	.st2{fill:#B8772B;}
	.st3{fill:#BFBFBF;}
	.st4{fill:#902E1D;}
	.st5{fill:#908F89;}
	.st6{fill:none;stroke:#424242;stroke-miterlimit:10;}
	.st7{fill:#070308;}
	.st8{fill:#BEBDBD;}
	.st9{clip-path:url(#SVGID_2_);}
	.st10{clip-path:url(#SVGID_4_);fill:#908F89;}
	.st11{fill:none;stroke:#070308;stroke-miterlimit:10;}
	.st12{fill:#F3F09A;}
</style>
<path class="st0" d="M241.89,114.34c-0.37,0-0.78-0.22-1.17-0.66c0.78-5.02,0.91-10.86,0.25-17.11c-0.74-7.09-2.42-13.67-4.64-19.12
	c0.42-1.01,0.92-1.56,1.53-1.56c2.35,0.01,5.15,8.61,6.26,19.24C245.23,105.76,244.24,114.36,241.89,114.34"/>
<path class="st1" d="M59.63,114.88c-1.8-16.58-6.71-29.96-11.43-32.01c-0.51-0.22-1.01-0.32-1.51-0.27l-7.8,0.8l-4.74,0.48
	c1.73-0.17,3.55,1.36,5.27,4.18c0.66,1.08,1.31,2.36,1.94,3.8c0.22,0.52,0.43,1.05,0.63,1.59c2.27,5.8,4.13,13.8,5.1,22.72
	c1,9.13,0.85,17.5-0.16,23.68c-0.07,0.42-0.14,0.84-0.23,1.24c-1.07,5.52-2.92,9.02-5.33,9.26l12.53-1.27
	c0.33-0.03,0.65-0.12,0.97-0.29C59.37,146.54,61.5,132.04,59.63,114.88"/>
<path class="st2" d="M46.7,141.09c0.09-0.41,0.16-0.83,0.23-1.24c1.01-6.18,1.15-14.55,0.16-23.68c-0.97-8.92-2.83-16.91-5.1-22.72
	c-0.2-0.54-0.42-1.08-0.63-1.59c-0.62-1.44-1.27-2.72-1.93-3.8c-1.72-2.82-3.54-4.35-5.27-4.18c-2.81,0.29-4.86,4.99-5.8,12.19
	l1.99-1.59l1.14-0.91c2.53-0.27,5.61,9,7.16,21.07c0.1,0.74,0.19,1.5,0.27,2.26c1.41,13.14,0.42,24.02-2.27,24.3l-1.31-0.67
	l-2.35-1.19c2.48,7.02,5.53,11.31,8.38,11.02C43.78,150.1,45.63,146.61,46.7,141.09"/>
<path class="st1" d="M240.07,95.88c-0.75-6.95-2.07-13.34-3.67-18.56c-2.62-8.58-6.08-14.05-9.28-13.71l-5.63,0.57l-5.25,0.53
	c0.39,0.34,0.78,0.68,1.16,1.05c1.18,1.11,2.35,2.31,3.51,3.59c0.14,0.18,0.32,0.36,0.48,0.55c0.29,0.25,0.59,0.56,0.88,0.91
	c0.39,0.45,0.77,0.98,1.14,1.58c2.99,4.82,5.67,14.15,6.85,25.02c1.23,11.32,0.51,21.35-1.59,26.51c-0.39,0.98-0.84,1.79-1.33,2.39
	l-0.02,0.01c-0.42,0.71-0.88,1.47-1.4,2.25v0.01c-0.52,0.81-1.1,1.65-1.73,2.53l10.15-1.04c3.43-0.35,5.73-7.27,6.28-17.29
	C240.89,107.78,240.73,102,240.07,95.88"/>
<path class="st0" d="M130.66,11.39c-0.3,0.1-0.61,0.21-0.9,0.32c-0.07,0.01-0.13,0.04-0.19,0.07c-0.22,0.08-0.45,0.17-0.68,0.27
	c-0.19,0.06-0.38,0.14-0.56,0.22c-0.19,0.07-0.38,0.15-0.56,0.25c-0.65,0.28-1.27,0.59-1.89,0.92c-0.16,0.07-0.3,0.15-0.46,0.25
	c-0.75,0.4-1.49,0.85-2.21,1.34c-0.22,0.14-0.43,0.28-0.65,0.44c-0.29,0.19-0.58,0.4-0.85,0.63c-0.39,0.29-0.78,0.59-1.16,0.91
	c-0.23,0.18-0.46,0.38-0.69,0.59c-0.46,0.4-0.92,0.82-1.36,1.29c-0.3,0.28-0.59,0.57-0.87,0.88c-0.23,0.24-0.46,0.49-0.68,0.75
	c-0.36,0.39-0.69,0.8-1.01,1.21c-0.23,0.28-0.45,0.56-0.66,0.85c-0.23,0.31-0.45,0.63-0.66,0.95c-0.48,0.7-0.92,1.41-1.34,2.15
	c-0.15,0.24-0.27,0.47-0.39,0.71c-0.39,0.71-0.74,1.44-1.05,2.18c-0.15,0.31-0.27,0.63-0.4,0.97c-0.22,0.53-0.42,1.07-0.59,1.62
	c-0.12,0.31-0.22,0.63-0.3,0.95c-0.19,0.6-0.35,1.22-0.49,1.83c-0.06,0.22-0.1,0.46-0.15,0.7c-0.09,0.38-0.16,0.77-0.22,1.16
	c-0.06,0.29-0.12,0.6-0.15,0.9c-0.03,0.19-0.06,0.41-0.07,0.6c-0.09,0.7-0.15,1.4-0.19,2.1c-0.03,0.53-0.04,1.05-0.04,1.58
	c0,1.13,0.06,2.25,0.19,3.4c0.04,0.43,0.1,0.88,0.17,1.31c0.01,0.11,0.03,0.22,0.06,0.35c0.07,0.45,0.14,0.91,0.24,1.36
	c0.27,1.34,0.65,2.65,1.1,3.93c0.12,0.35,0.24,0.71,0.39,1.05c0.03,0.1,0.06,0.19,0.12,0.29c0.04,0.15,0.1,0.29,0.17,0.44
	c0.29,0.73,0.62,1.44,0.98,2.12c0.16,0.34,0.33,0.66,0.52,0.97c0.09,0.18,0.17,0.35,0.29,0.52c0.09,0.17,0.19,0.34,0.3,0.5
	c0.33,0.56,0.68,1.09,1.04,1.62c0.03,0.06,0.06,0.08,0.09,0.12c0.33,0.5,0.69,0.98,1.08,1.46c0.09,0.13,0.19,0.25,0.29,0.36
	c0.3,0.39,0.63,0.77,0.98,1.15c0.06,0.08,0.14,0.18,0.23,0.27c0.4,0.45,0.82,0.88,1.26,1.3c0.3,0.31,0.62,0.6,0.95,0.9
	c0.16,0.15,0.32,0.29,0.49,0.43c0.16,0.15,0.33,0.29,0.49,0.42c0.35,0.28,0.68,0.55,1.02,0.81c0.35,0.27,0.71,0.53,1.07,0.78
	c0.35,0.25,0.71,0.49,1.08,0.73c0.36,0.24,0.74,0.48,1.13,0.68c0.37,0.22,0.75,0.43,1.14,0.63c0.39,0.21,0.78,0.41,1.17,0.6h0.01
	c0.39,0.19,0.8,0.38,1.2,0.55c0.41,0.17,0.81,0.34,1.21,0.49c0.42,0.15,0.84,0.31,1.26,0.45c0.84,0.28,1.69,0.53,2.55,0.74
	c0.43,0.11,0.87,0.21,1.31,0.29c0.87,0.17,1.76,0.31,2.65,0.41c0.36,0.04,0.72,0.08,1.08,0.1c0.09,0.03,0.19,0.03,0.27,0.03
	c0.87,0.07,1.73,0.1,2.61,0.08c0.97,0,1.92-0.05,2.89-0.15c15.11-1.54,26.59-13.36,28.13-27.75c0.25-2.19,0.25-4.45,0-6.74
	c-1.86-17.19-17.36-29.73-34.67-28.1l-0.24,0.03c-0.74,0.07-1.44,0.2-2.15,0.33l-3.37,0.75C131.59,11.1,131.11,11.24,130.66,11.39
	 M141.47,16.11c13.84,0,25.05,11.23,25.05,25.07c0,0.82-0.04,1.64-0.12,2.45c-1.22,12.69-11.92,22.61-24.93,22.61
	c-0.9,0-1.81-0.05-2.68-0.14c-11.5-1.22-20.67-10.2-22.16-21.6c-0.15-1.08-0.23-2.19-0.23-3.3c0-11.03,7.14-20.41,17.05-23.75
	C135.97,16.56,138.66,16.11,141.47,16.11"/>
<path class="st3" d="M138.62,73.04c0.1-0.01,0.19-0.01,0.29-0.04l-0.06-0.48c-0.09,0-0.19,0-0.27-0.03
	c-0.36-0.01-0.72-0.06-1.08-0.1c-0.89-0.1-1.79-0.24-2.65-0.41c-0.45-0.08-0.88-0.18-1.31-0.29c-0.86-0.21-1.72-0.46-2.55-0.74
	c-0.42-0.14-0.84-0.29-1.26-0.45c-0.4-0.15-0.81-0.32-1.21-0.49c-0.41-0.17-0.81-0.35-1.2-0.55h-0.02c-0.39-0.19-0.78-0.39-1.17-0.6
	c-0.39-0.19-0.77-0.41-1.14-0.63c-0.39-0.21-0.76-0.45-1.13-0.68c-0.37-0.24-0.73-0.48-1.08-0.73c-0.36-0.25-0.72-0.52-1.07-0.78
	c-0.35-0.27-0.68-0.53-1.03-0.81c-0.16-0.13-0.33-0.27-0.49-0.42c-0.17-0.14-0.33-0.28-0.49-0.43c-0.33-0.29-0.65-0.59-0.95-0.9
	c-0.43-0.42-0.85-0.85-1.26-1.3c-0.09-0.08-0.17-0.18-0.23-0.27c-0.35-0.38-0.68-0.75-0.98-1.15c-0.1-0.11-0.2-0.24-0.29-0.36
	c-0.39-0.47-0.75-0.95-1.08-1.45c-0.03-0.04-0.06-0.07-0.09-0.13c-0.36-0.53-0.71-1.06-1.04-1.62c-0.12-0.17-0.22-0.34-0.3-0.5
	c-0.12-0.17-0.2-0.34-0.29-0.52c-0.19-0.31-0.36-0.63-0.52-0.97c-0.36-0.68-0.69-1.4-0.98-2.12c-0.07-0.14-0.13-0.28-0.17-0.43
	c-0.06-0.1-0.09-0.2-0.12-0.29c-0.15-0.34-0.27-0.7-0.39-1.05c-0.45-1.27-0.82-2.59-1.1-3.93c-0.1-0.45-0.17-0.91-0.24-1.36
	c-0.03-0.13-0.04-0.24-0.06-0.35c-0.07-0.43-0.13-0.88-0.17-1.31c-0.13-1.15-0.19-2.26-0.19-3.4c0-0.53,0.01-1.05,0.05-1.58
	c0.04-0.7,0.1-1.4,0.19-2.1c0.01-0.19,0.04-0.4,0.07-0.6c0.03-0.29,0.09-0.6,0.15-0.89c0.06-0.39,0.13-0.78,0.22-1.16
	c0.04-0.24,0.09-0.47,0.15-0.7c0.14-0.61,0.3-1.23,0.49-1.83c0.09-0.32,0.19-0.64,0.3-0.95c0.17-0.54,0.38-1.09,0.59-1.62
	c0.13-0.34,0.26-0.66,0.4-0.97c0.32-0.74,0.66-1.47,1.05-2.18c0.12-0.24,0.24-0.48,0.39-0.71c0.42-0.74,0.87-1.46,1.34-2.15
	c0.22-0.32,0.43-0.64,0.66-0.95c0.22-0.29,0.43-0.57,0.66-0.85c0.32-0.42,0.65-0.83,1.01-1.22c0.22-0.27,0.45-0.52,0.68-0.75
	c0.27-0.31,0.56-0.6,0.87-0.88c0.43-0.46,0.9-0.88,1.36-1.29c0.23-0.21,0.46-0.41,0.69-0.59c0.38-0.32,0.77-0.61,1.16-0.91
	c0.27-0.22,0.56-0.43,0.85-0.63c0.22-0.15,0.43-0.29,0.65-0.43c0.72-0.49,1.46-0.94,2.21-1.34c0.16-0.1,0.3-0.18,0.46-0.25
	c0.62-0.33,1.24-0.64,1.89-0.92c0.19-0.1,0.38-0.18,0.56-0.25c0.19-0.08,0.38-0.17,0.56-0.22c0.23-0.1,0.46-0.18,0.68-0.27
	c0.06-0.03,0.12-0.06,0.19-0.07c0.29-0.11,0.59-0.22,0.9-0.32c0.45-0.15,0.92-0.29,1.39-0.42l-0.06-0.5c-0.06,0-0.12,0.01-0.17,0.01
	c-17.39,1.78-30.01,17.21-28.13,34.49c0.1,0.89,0.23,1.77,0.4,2.64C107.18,63.5,122.11,74.72,138.62,73.04"/>
<path class="st3" d="M134.71,10.33c0.23-0.05,0.48-0.07,0.71-0.11l0.54-0.12l-3.97,0.37l0.06,0.5
	C132.91,10.71,133.81,10.5,134.71,10.33"/>
<path class="st3" d="M132.05,10.97l3.37-0.75c-0.23,0.04-0.48,0.06-0.71,0.11C133.81,10.49,132.92,10.71,132.05,10.97"/>
<path class="st4" d="M116.4,41.17c0,1.12,0.08,2.22,0.23,3.31c1.49,11.41,10.66,20.38,22.16,21.6c0.87,0.09,1.78,0.14,2.68,0.14
	c13.01,0,23.71-9.91,24.93-22.61c0.08-0.81,0.12-1.63,0.12-2.45c0-13.84-11.22-25.07-25.05-25.07c-2.8,0-5.5,0.46-8.02,1.31
	C123.54,20.76,116.4,30.14,116.4,41.17"/>
<path class="st0" d="M36.66,141.18c2.69-0.28,3.68-11.15,2.27-24.3c-0.09-0.77-0.17-1.52-0.27-2.26
	c-1.55-12.06-4.63-21.33-7.16-21.07l-1.14,0.91l-1.99,1.59l-2.73,2.18l-2.15,1.72c0.01,0.04,0.01,0.07,0.03,0.11
	c0.03,0.02,0.06,0.03,0.1,0.04c0.1,0.04,0.19,0.13,0.27,0.25c0.04,0.06,0.09,0.11,0.13,0.18c0.29,0.43,0.59,1.15,0.9,2.08
	c0.07,0.22,0.14,0.46,0.23,0.71c0.26,0.91,0.53,2,0.79,3.21c0.06,0.22,0.1,0.45,0.15,0.67c0.29,1.38,0.56,2.92,0.82,4.57
	c0.09,0.52,0.17,1.03,0.24,1.58c0.09,0.62,0.17,1.24,0.24,1.87c0.07,0.52,0.13,1.03,0.2,1.55c0.05,0.41,0.09,0.8,0.13,1.2
	c0.06,0.52,0.1,1.04,0.14,1.54c0.01,0.04,0.01,0.07,0.01,0.1c0.07,0.75,0.15,1.48,0.2,2.21c0.07,0.85,0.13,1.68,0.17,2.48
	c0.04,0.68,0.09,1.37,0.1,2.01c0.01,0.28,0.03,0.56,0.03,0.83c0.01,0.15,0.01,0.29,0.01,0.43c0.01,0.18,0.01,0.36,0.01,0.55
	c0.02,0.39,0.02,0.77,0.02,1.14c0.01,1.5-0.03,2.81-0.12,3.89c-0.02,0.32-0.05,0.63-0.09,0.91c-0.14,1.15-0.35,1.92-0.62,2.22
	c-0.03,0.1-0.05,0.18-0.06,0.27l5.44,2.75l2.35,1.19L36.66,141.18z"/>
<path class="st5" d="M28.31,133.18c0.09-1.08,0.13-2.39,0.12-3.89c0-0.38,0-0.75-0.02-1.14c0-0.18,0-0.36-0.01-0.55
	c0-0.14,0-0.28-0.01-0.43c0-0.27-0.02-0.55-0.03-0.83c-0.01-0.64-0.06-1.33-0.1-2.01c-0.04-0.8-0.1-1.62-0.17-2.48
	c-0.06-0.73-0.13-1.45-0.2-2.21c0-0.03,0-0.06-0.02-0.1c-0.04-0.5-0.09-1.02-0.14-1.54c-0.04-0.41-0.09-0.8-0.13-1.2
	c-0.07-0.52-0.13-1.03-0.2-1.55c-0.07-0.63-0.16-1.26-0.24-1.87c-0.07-0.55-0.16-1.06-0.24-1.58c-0.26-1.65-0.53-3.19-0.82-4.57
	c-0.04-0.22-0.09-0.45-0.15-0.67c-0.26-1.22-0.53-2.31-0.79-3.21c-0.09-0.25-0.16-0.49-0.23-0.71c-0.3-0.94-0.61-1.65-0.9-2.08
	c-0.04-0.07-0.09-0.12-0.13-0.18c-0.09-0.12-0.17-0.21-0.27-0.25c-0.04-0.01-0.07-0.03-0.1-0.04c-0.04-0.03-0.09-0.03-0.13-0.03
	c-1.31,0.13-1.49,8.39-0.39,18.45c0.06,0.52,0.12,1.04,0.17,1.55c1.11,9.32,2.93,16.54,4.17,16.41c0.1-0.01,0.19-0.06,0.27-0.15
	c0.27-0.31,0.48-1.08,0.62-2.22C28.27,133.8,28.3,133.5,28.31,133.18"/>
<path class="st6" d="M227.2,126.37c0.49-0.6,0.94-1.41,1.33-2.39c-0.1,0.21-0.23,0.44-0.35,0.66
	C227.88,125.18,227.56,125.77,227.2,126.37z"/>
<path class="st0" d="M68.22,63.86c0.26-0.18,0.51-0.39,0.76-0.57C68.78,63.44,68.52,63.63,68.22,63.86"/>
<path class="st0" d="M48.2,82.86c0.36-0.47,0.73-0.89,1.09-1.34C48.88,82,48.51,82.46,48.2,82.86"/>
<path class="st0" d="M68.22,63.86c-2.73,1.93-5.43,4.06-8.1,6.48c-3.16,2.87-7.13,6.53-10.83,11.18
	C53.89,76.15,64.49,66.74,68.22,63.86"/>
<path class="st0" d="M225.78,128.63c0.52-0.78,0.98-1.54,1.4-2.25l0.01-0.01c0.36-0.6,0.68-1.19,0.98-1.73
	c0.12-0.22,0.24-0.45,0.35-0.66c2.09-5.16,2.82-15.18,1.59-26.5c-1.18-10.88-3.87-20.2-6.85-25.02c-0.38-0.47-0.75-0.95-1.13-1.41
	c-0.24-0.31-0.49-0.6-0.74-0.9c-0.06-0.05-0.12-0.12-0.16-0.18c-0.16-0.18-0.33-0.36-0.48-0.54c-1.16-1.29-2.32-2.49-3.51-3.59
	c-0.38-0.36-0.77-0.71-1.16-1.05c-0.81-0.73-1.63-1.41-2.45-2.05c-2.66-2.11-5.37-3.89-8.03-5.42h-0.01
	c-1.8-1.04-3.58-1.96-5.3-2.82c-1.56-0.77-3.06-1.48-4.5-2.17c-8.51-4.04-16.38-6.25-23.33-7.61
	c-1.54,14.39-13.02,26.21-28.13,27.75c-0.97,0.1-1.92,0.15-2.89,0.15c-0.84,0.18-1.69,0.31-2.55,0.39c-0.1,0.03-0.19,0.03-0.29,0.04
	c-16.51,1.68-31.44-9.53-34.53-25.43c-9.77,2.85-22.55,6.92-35.1,15.68c-0.26,0.18-0.51,0.39-0.76,0.57
	c-3.74,2.88-14.34,12.29-18.93,17.66c-0.36,0.46-0.73,0.87-1.09,1.34c4.72,2.05,9.63,15.43,11.43,32.01
	c1.86,17.17-0.26,31.66-4.76,33.9c7.98,7.65,16.32,11.44,22.91,14.34c4.62,2.04,8.93,3.52,12.95,4.63
	c6.37,1.77,11.97,2.63,16.79,3.34c20.74,3.06,37.52,0.85,45.68-0.57c7.32-1.27,21.2-3.82,37.21-12.01c1.66-0.84,3.59-1.85,5.72-3.04
	c0.14-0.08,0.29-0.15,0.43-0.24c0.48-0.28,0.98-0.56,1.49-0.87c6.78-3.97,15.13-9.85,22.66-18.86c1.17-1.4,2.21-2.75,3.13-4.03
	c0.07-0.11,0.16-0.21,0.22-0.31c0.63-0.88,1.21-1.72,1.73-2.53V128.63z M215.2,123.22c-64.78,18.5-128.87,14.39-128.87,14.39
	c-2.43,0.25-5.44-9.5-6.73-21.81c-1.29-12.31-0.39-22.49,2.04-22.74c0,0,67.14-18.68,128.89-14.42c2.43-0.25,5.44,9.52,6.73,21.83
	C218.56,112.77,217.63,122.94,215.2,123.22"/>
<path class="st7" d="M210.53,78.65C148.79,74.39,81.64,93.07,81.64,93.07c-2.43,0.25-3.33,10.43-2.04,22.74
	c1.29,12.31,4.31,22.06,6.73,21.81c0,0,64.08,4.1,128.87-14.39c2.43-0.27,3.35-10.45,2.06-22.74
	C215.97,88.17,212.96,78.4,210.53,78.65"/>
<path class="st5" d="M221.68,134.36c-1.08,1.12-2.31,2.22-3.6,3.31c-0.51,0.91-1.09,1.8-1.76,2.68c1.49-1.51,2.96-3.09,4.41-4.81
	C221.06,135.13,221.36,134.75,221.68,134.36"/>
<path class="st5" d="M204.96,149.96c-2.4,1.68-4.74,3.17-6.91,4.44c-0.5,0.32-1,0.59-1.47,0.86c-0.16,0.09-0.29,0.16-0.43,0.25
	c-2.13,1.18-4.06,2.2-5.71,3.04c-16.03,8.18-29.9,10.72-37.22,11.99c-8.16,1.43-24.93,3.65-45.68,0.59
	c-4.83-0.73-10.43-1.56-16.8-3.35c-4.01-1.09-8.32-2.58-12.94-4.62c-5.35-2.36-11.86-5.35-18.41-10.5c-1.5-1.18-3.01-2.43-4.51-3.85
	c1.02-0.5,1.88-1.63,2.63-3.24c0.23-0.48,0.43-1,0.61-1.54c2.15-6.03,2.86-16.86,1.54-29.11c-0.05-0.48-0.11-0.95-0.16-1.43
	c-1.7-13.96-5.58-25.41-9.59-29.36c0.09-0.68,0.45-3.26,0.57-3.88v-0.02v-0.02c0.18-0.18,0.5-0.16,0.88,0
	c4.44,3.67,8.93,15.73,11.24,30.85c0.2,1.31,0.39,2.63,0.54,3.99c1.68,13.42,1.18,25.39-0.95,32.32
	c14.71,10.65,42.05,17.82,73.35,17.82C164.25,165.2,189.6,159.17,204.96,149.96"/>
<path class="st5" d="M49.92,84.13c-1.63-1.52-1.74-1.14-1.72-1.27c0.02-0.12,2.06-2.53,2.06-2.53s0.4-0.27,0.44-0.24"/>
<path class="st8" d="M23.77,119.64c-0.06-0.52-0.12-1.03-0.17-1.55c-0.95-8.77-0.95-16.16-0.06-18.01c-0.01,0-0.02-0.01-0.03-0.01
	c-0.04-0.03-0.09-0.03-0.13-0.03c-1.31,0.13-1.49,8.39-0.39,18.45c0.06,0.52,0.12,1.04,0.17,1.55c1.11,9.32,2.93,16.54,4.17,16.41
	c0.1-0.01,0.19-0.05,0.27-0.15c0.06-0.07,0.12-0.17,0.18-0.29C26.55,135.57,24.83,128.59,23.77,119.64"/>
<path class="st2" d="M234.87,111.05c-0.27-4.87-1.11-10.45-2.54-16.28c-2.86-11.79-7.34-21.65-11.61-26.52
	c-0.54-0.61-1.07-1.13-1.61-1.56c-0.39-0.36-0.79-0.66-1.18-0.88c-0.23-0.18-0.45-0.34-0.66-0.52c-0.25-0.2-0.5-0.39-0.75-0.57
	l-0.36,0.05c0.39,0.32,0.77,0.68,1.16,1.04c1.18,1.11,2.36,2.31,3.51,3.58c0.14,0.18,0.32,0.36,0.48,0.54
	c0.27,0.27,0.59,0.57,0.88,0.93c0.39,0.43,0.75,0.97,1.13,1.56c2.99,4.83,5.67,14.14,6.85,25.03c0.57,5.19,0.73,10.11,0.52,14.39
	c-0.23,5.1-0.97,9.32-2.11,12.1c-0.39,0.97-0.84,1.79-1.31,2.4h-0.02c-0.41,0.73-0.88,1.47-1.41,2.27
	c-0.52,0.82-1.09,1.65-1.72,2.54l6.57-0.68l3.58-0.36c2.04-0.2,3.67-2.75,4.78-6.89l-4.35-2.9
	C234.71,120.32,235.16,114.64,234.87,111.05"/>
<path class="st1" d="M38.89,83.4l-4.73,0.47c-2.82,0.29-4.86,4.99-5.8,12.19l-2.73,2.18l-3.72-32.78l14.77-1.58L38.89,83.4z"/>
<path class="st2" d="M23.48,100.01c0.01,0.04,0.01,0.07,0.03,0.11c-0.04-0.03-0.09-0.03-0.13-0.03c-1.31,0.13-1.49,8.39-0.39,18.45
	c0.06,0.52,0.11,1.04,0.17,1.55h-0.01l-5.73-50.34l4.49-4.25l3.72,32.78L23.48,100.01z"/>
<path class="st1" d="M205.67,57.24c2.66,1.54,5.37,3.31,8.03,5.42c0.82,0.64,1.65,1.33,2.45,2.05l5.25-0.53l-2.27-19.88l-14.77,1.58
	l1.29,11.35H205.67z"/>
<path class="st2" d="M204.36,45.9l-4.5,4.25l0.49,4.28c1.72,0.87,3.5,1.79,5.3,2.82L204.36,45.9z"/>
<path class="st0" d="M213.44,187.89l-0.17-1.58v-0.03l-0.2-1.79c-0.9-8.25-8.12-14.34-16.51-14.26c-0.35,0-0.72,0.01-1.08,0.06
	c-0.16,0-0.32,0.01-0.48,0.03l-67.64,6.89c-8.28,0.85-14.49,7.53-14.69,15.4c-0.02,0.18-0.02,0.36-0.02,0.53
	c-0.01,0.63,0.02,1.27,0.09,1.92l1.94,17.81c0.95,8.75,9.04,15.08,18.06,14.17l67.64-6.89c8.31-0.84,14.51-7.55,14.71-15.42
	c0.03-0.41,0.02-0.81,0-1.23c0-0.39-0.03-0.8-0.07-1.19L213.44,187.89z"/>
<path class="st6" d="M213.44,187.89l-0.17-1.58v-0.03l-0.2-1.79c-0.9-8.25-8.12-14.34-16.51-14.26c-0.35,0-0.72,0.01-1.08,0.06
	c-0.16,0-0.32,0.01-0.48,0.03l-67.64,6.89c-8.28,0.85-14.49,7.53-14.69,15.4c-0.02,0.18-0.02,0.36-0.02,0.53
	c-0.01,0.63,0.02,1.27,0.09,1.92l1.94,17.81c0.95,8.75,9.04,15.08,18.06,14.17l67.64-6.89c8.31-0.84,14.51-7.55,14.71-15.42
	c0.03-0.41,0.02-0.81,0-1.23c0-0.39-0.03-0.8-0.07-1.19L213.44,187.89z"/>
<path class="st0" d="M220.14,191.79c-1.55-14.23-9.89-26.5-22.33-35.11c-0.17-0.14-0.36-0.25-0.53-0.38
	c-0.06-0.04-0.1-0.07-0.16-0.11c-2.12,1.19-4.06,2.19-5.72,3.03c-16.01,8.19-29.89,10.74-37.21,12.01
	c-8.17,1.43-24.94,3.64-45.68,0.57c-4.82-0.71-10.42-1.56-16.79-3.34c-0.2,0.24-0.42,0.46-0.62,0.7c1.99,1.82,3.41,6.44,3.41,11.88
	c0,6.99-2.35,12.67-5.25,12.67c0,0-6.09,2.92-11.03,9.53c0.03,0.98,0.1,1.97,0.22,2.96c1.34,12.36,7.81,23.23,17.64,31.54
	c2.56-2.83,5.64-5.11,9.11-6.66c2.47-1.1,5.13-1.83,7.94-2.11c14.78-1.49,28.28,9.74,31.41,25.6c3.52,0.06,7.12-0.1,10.74-0.46
	c4.5-0.46,8.86-1.23,13.06-2.29c0.53-0.12,1.05-0.27,1.58-0.42c10.84-2.94,20.5-7.77,28.41-13.94c5.02-3.93,9.35-8.38,12.8-13.24
	c5.89-8.3,9.24-17.7,9.28-27.53v-0.01v-0.6C220.37,194.66,220.3,193.23,220.14,191.79"/>
<path class="st5" d="M177.1,243.81c-8.34,2.15-18.28,2.72-23.57,3.08c-5.3,0.36,3.04,0.6-3.74-0.07c-6.78-0.67-9.41-5.3-14.71-9.84
	c2.58,2.47,4.76,5.44,6.44,8.8c1.36,2.7,2.38,5.62,3.01,8.75c1.97,0.05,3.97-0.02,5.98-0.11c1.59-0.09,3.15-0.18,4.76-0.34
	c4.51-0.45,8.86-1.22,13.06-2.29c0.54-0.14,1.07-0.27,1.59-0.43c10.84-2.92,20.49-7.75,28.4-13.92c2.43-1.93,4.71-3.94,6.8-6.1
	C198.12,236.4,188.35,240.91,177.1,243.81"/>
<path class="st5" d="M90.01,219c-2.17-4.2-3.49-8.43-4.09-12.3c-0.06-0.32-0.11-0.65-0.15-0.98c-0.03-0.24-0.09-0.51-0.11-0.75
	c0.02-0.01,0.03-0.02,0.05-0.02c-0.15-2.64,0.5-5.33,1.95-7.5c0.43-0.78,0.95-1.5,1.56-2.15c0.6-0.74,1.27-1.41,2.08-1.97
	c0.02-0.25,0.06-0.49,0.08-0.76c-0.65,0.7-1.36,1.12-2.11,1.12c0,0-0.73,0.36-1.86,1.07c-0.07,0.05-0.14,0.09-0.2,0.14
	c-2.2,1.41-5.83,4.1-8.98,8.34c0.02,0.97,0.11,1.97,0.23,2.97c1.34,12.35,7.8,23.23,17.64,31.53c1.68-1.86,3.6-3.45,5.69-4.78
	C97.51,230.17,93.2,225.28,90.01,219"/>
<path class="st7" d="M210.63,202.45c0.01,0.36,0.03,0.71,0,1.05c-0.36,6.63-6.29,12.22-14.21,12.92l-65.36,5.91
	c-8.72,0.78-16.53-4.65-17.45-12.15l-1.87-15.27c-0.06-0.45-0.08-0.9-0.08-1.34c0-0.14,0-0.3,0.01-0.46
	c0.36-6.62,6.3-12.19,14.2-12.91l65.36-5.91c0.17-0.01,0.35-0.04,0.51-0.04c0.34-0.02,0.67-0.04,0.99-0.04
	c8.1-0.07,15.09,5.15,15.96,12.23l0.19,1.53V188l0.13,1.02l1.55,12.71C210.59,201.97,210.6,202.21,210.63,202.45"/>
<path class="st0" d="M132.61,286.18c-3.87,3.06-8.5,5.06-13.63,5.58c-15.72,1.59-29.99-11.24-31.88-28.68
	c-0.53-4.88-0.03-9.59,1.3-13.9c1.39-4.49,3.68-8.51,6.68-11.81c4.39-4.85,10.31-8.08,17.05-8.76c14.78-1.5,28.27,9.74,31.41,25.59
	c0.2,1.01,0.36,2.04,0.48,3.09C145.29,269.04,140.61,279.89,132.61,286.18"/>
<path class="st5" d="M95.2,269c-6.28-13.44-3.63-28.43,5.62-36.45c-2.11,1.31-4.03,2.95-5.73,4.83c-2.99,3.29-5.3,7.32-6.69,11.81
	c-1.31,4.3-1.84,9-1.29,13.9c1.88,17.43,16.16,30.26,31.89,28.67c4.9-0.5,9.32-2.33,13.08-5.19
	C118.75,292.15,102.43,284.42,95.2,269"/>
<path class="st0" d="M228.67,255.5c-1.1,10.08-6.32,18.64-13.58,23.74c-5.3,3.73-11.66,5.63-18.3,4.95
	c-15.34-1.55-26.39-16.3-25.13-33.24c10.84-2.94,20.5-7.77,28.41-13.94c5.02-3.93,9.35-8.39,12.8-13.24
	C223.49,229.2,230.16,241.73,228.67,255.5"/>
<path class="st5" d="M225.64,266.28c-5.42,7.16-14.26,11.85-24.23,11.85c-15.94,0-28.92-11.88-29.79-26.84
	c-1.04,16.77,9.93,31.28,25.14,32.82c6.64,0.68,12.99-1.22,18.29-4.96C219.52,276.03,223.19,271.59,225.64,266.28
	C225.64,266.29,225.64,266.28,225.64,266.28"/>
<path class="st0" d="M132.61,286.18c-0.58,8.18-4.33,15.1-10.9,18.42c-11.82,6.01-28.32-1.87-36.84-17.59
	c-7.88-14.55-6.16-30.74,3.52-37.84c-1.33,4.3-1.83,9.02-1.3,13.9c1.89,17.45,16.17,30.28,31.88,28.68
	C124.11,291.24,128.75,289.24,132.61,286.18"/>
<path class="st5" d="M90.77,285.41c-8.34-11.4-10.09-24.96-5.17-33.71c-7.14,7.96-7.78,22.28-0.73,35.32
	c8.52,15.71,25.03,23.6,36.84,17.59c3.79-1.91,6.62-5.01,8.46-8.86c-0.63,0.68-1.36,1.31-2.13,1.88
	C117.84,305.09,101.15,299.6,90.77,285.41"/>
<path class="st0" d="M215.18,279.07c-2.93,10.62-10.23,18.4-19.51,19.33c-13.28,1.33-25.58-11.91-27.45-29.58
	c-0.68-6.34,0.09-12.41,1.96-17.63c0.53-0.13,1.05-0.27,1.57-0.42c-1.26,16.94,9.79,31.69,25.13,33.24
	C203.52,284.71,209.88,282.81,215.18,279.07"/>
<path class="st0" d="M94.18,180.74c0,6.99-2.35,12.66-5.25,12.66c0,0-6.09,2.92-11.03,9.53c-1.07,1.4-2.06,2.98-2.94,4.71
	c-2.86,5.72-5.04,10.79-6.38,14.06c-3.69-6.85-11.95-11.65-21.59-11.65c-1.79,0-3.52,0.2-5.2,0.51c-2.19,0.42-4.26,1.09-6.18,1.96
	c-0.43,0.14-0.85,0.27-1.23,0.43l-0.2-0.08l-0.13-0.04c0,0,2.09-5.05,7.87-12.9c5.76-7.87,14.09-15.61,26.05-23.26
	c10.11-6.44,18.09-8.14,20.32-8.51c0.22-0.06,0.37-0.07,0.49-0.08c0.1-0.01,0.15-0.01,0.15-0.01c0.65,0,1.27,0.28,1.85,0.8
	C92.76,170.68,94.18,175.31,94.18,180.74"/>
<path class="st0" d="M70,229.52c0,10.86-10.59,19.66-23.67,19.66c-13.06,0-23.66-8.79-23.66-19.66c0-7.39,4.96-13.84,12.28-17.18
	c1.92-0.87,3.98-1.54,6.18-1.96c1.67-0.31,3.41-0.5,5.2-0.5c9.64,0,17.9,4.79,21.59,11.64C69.25,223.99,70,226.67,70,229.52"/>
<path class="st5" d="M36.88,242.51c-8.3-6.3-12.01-16.02-9.97-24.1c-2.65,3.15-4.24,6.98-4.24,11.11
	c0,10.86,10.59,19.65,23.67,19.65c2.72,0,5.33-0.38,7.75-1.09C48.42,248.39,42.23,246.55,36.88,242.51"/>
<path class="st5" d="M68.09,176.51c-11.97,7.64-20.31,15.39-26.07,23.26c-5.76,7.85-7.87,12.9-7.87,12.9l0.14,0.05l0.2,0.09
	c0.39-0.18,0.79-0.29,1.22-0.43c1.93-0.88,3.99-1.54,6.19-1.97c0.38-0.07,0.77-0.11,1.15-0.17c2.28-6.06,5.6-12.21,9.99-18.05
	c7.97-10.61,17.86-18.2,27.46-21.95C77.08,171.52,72.83,173.48,68.09,176.51"/>
<path class="st0" d="M259.24,189.12l-0.11,0.05l-0.19,0.1c-0.39-0.1-0.81-0.15-1.27-0.23c-2.01-0.52-4.13-0.85-6.34-0.93
	c-1.68-0.05-3.41,0-5.15,0.24c-9.44,1.28-16.77,6.68-19.32,13.33c-1.51-2.29-3.79-5.63-6.61-9.43c-0.03-1.3-0.1-2.59-0.26-3.9
	c-1.53-12.93-9.78-24.09-22.09-31.91c0.24-0.13,0.5-0.22,0.77-0.25h0.14c0.12,0,0.27-0.01,0.49,0.01
	c2.26,0.04,10.32,0.49,21.19,4.94c12.9,5.27,22.23,11.13,29.08,17.43C256.42,184.87,259.24,189.12,259.24,189.12"/>
<g>
	<defs>
		<rect id="SVGID_1_" x="201.08" y="158.6" width="25.8" height="43.07"/>
	</defs>
	<clipPath id="SVGID_2_">
		<use xlink:href="#SVGID_1_"  style="overflow:visible;"/>
	</clipPath>
	<g class="st9">
		<defs>
			<rect id="SVGID_3_" x="201.08" y="158.6" width="25.8" height="43.07"/>
		</defs>
		<clipPath id="SVGID_4_">
			<use xlink:href="#SVGID_3_"  style="overflow:visible;"/>
		</clipPath>
		<path class="st10" d="M224.83,189.7c-0.02,2.74,0.52,6.66,2.04,11.97c-0.73-1.11-1.65-2.45-2.7-3.99
			c-0.07-0.09-0.14-0.18-0.23-0.29c-0.07-0.11-0.14-0.22-0.23-0.32c-1.04-1.47-2.18-3.11-3.47-4.83c-0.02-1.29-0.09-2.58-0.25-3.9
			c-1.41-11.79-8.39-22.08-18.93-29.74c6.44,1.88,13.1,7,17.91,14.51c3.45,5.39,5.37,11.15,5.8,16.46
			C224.79,189.57,224.81,189.61,224.83,189.7"/>
	</g>
</g>
<path class="st0" d="M252.24,223.65c-12.8,1.74-24.51-4.75-26.19-14.51c-0.44-2.55-0.11-5.07,0.8-7.46
	c2.55-6.65,9.88-12.04,19.32-13.33c1.74-0.24,3.47-0.29,5.15-0.24c2.21,0.07,4.33,0.41,6.34,0.93c7.68,2.03,13.52,7.17,14.67,13.81
	C274.02,212.61,265.01,221.91,252.24,223.65"/>
<path class="st5" d="M251.78,220.95c-13.67-0.82-29.43-7.77-24.05-21.06c-0.32,0.59-0.63,1.18-0.88,1.79
	c-0.91,2.38-1.25,4.9-0.79,7.46c1.68,9.75,13.4,16.25,26.18,14.51c4.76-0.66,8.98-2.33,12.33-4.71
	C260.78,220.48,256.4,221.25,251.78,220.95"/>
<polygon class="st1" points="135.15,188.08 141.12,187.39 144.18,212.65 138.21,213.34 137.03,203.59 125.29,204.93 126.47,214.68 
	120.5,215.36 117.44,190.1 123.41,189.42 124.59,199.16 136.33,197.82 "/>
<path class="st1" d="M157.19,211.53c-3.88,0.44-6.21-1.34-6.66-5.09l-1.75-14.43c-0.46-3.76,1.39-6.01,5.27-6.46l6.34-0.72
	c7.42-0.85,14.12,4.27,14.99,11.45c0.87,7.18-4.43,13.68-11.85,14.53L157.19,211.53z M156.48,205.76l6.34-0.72
	c4.1-0.47,7.06-4.1,6.58-8.07c-0.48-3.97-4.23-6.83-8.33-6.36l-6.34,0.72L156.48,205.76z"/>
<path class="st1" d="M178.37,196.49c-0.9-7.47,4.63-14.25,12.34-15.13c5.18-0.59,10.02,1.6,12.93,5.36l-4.79,3.48
	c-1.64-1.97-4.08-3.45-7.44-3.06c-4.47,0.51-7.6,4.35-7.08,8.67c0.52,4.33,4.48,7.35,8.96,6.84c3.35-0.38,5.38-2.37,6.51-4.66
	l5.49,2.3c-1.94,4.32-6.12,7.54-11.3,8.13C186.27,209.31,179.28,203.96,178.37,196.49"/>
<path class="st0" d="M111.08,97.23c-7.97,0-14.43,6.26-14.43,13.98s6.47,13.98,14.43,13.98c7.97,0,14.43-6.26,14.43-13.98
	S119.05,97.23,111.08,97.23"/>
<path class="st11" d="M111.08,97.23c-7.97,0-14.43,6.26-14.43,13.98s6.47,13.98,14.43,13.98c7.97,0,14.43-6.26,14.43-13.98
	S119.05,97.23,111.08,97.23z"/>
<path class="st0" d="M188.83,87.72c-7.98,0-14.43,6.26-14.43,13.98s6.45,13.98,14.43,13.98c7.97,0,14.43-6.26,14.43-13.98
	S196.8,87.72,188.83,87.72"/>
<path class="st11" d="M188.83,87.72c-7.98,0-14.43,6.26-14.43,13.98s6.45,13.98,14.43,13.98c7.97,0,14.43-6.26,14.43-13.98
	S196.8,87.72,188.83,87.72z"/>
<path class="st0" d="M123.14,36.5c3.33-0.85,7.02-1.66,11-2.32c0.43-0.09,0.87-0.15,1.3-0.22c-0.43-3.75-0.88-7.42-1.37-11.04
	l-0.01-0.24c0,0,1.2-0.9,5.71-1.58c4.5-0.7,7.14-0.57,7.14-0.57l0.05,0.17c0.72,3.76,1.39,7.69,1.96,11.8
	c4.2-0.24,8.1-0.28,11.65-0.18c0,0,1.41,4.99,1.33,11.31c0.02,0.38,0,0.75-0.01,1.15l-0.29,1.62c-3.46,0.04-7.16,0.18-11.06,0.46
	c0.39,4.64,0.63,9.09,0.75,13.32c0,0-1.27,0.66-6.66,1.26c-5.37,0.6-6.85,0.34-6.85,0.34c-0.24-4.38-0.55-8.85-0.94-13.41
	c-0.38,0.06-0.74,0.11-1.11,0.18c-3.91,0.59-7.59,1.29-11.04,2.04l-0.26-1.1c-0.4-2.29-0.68-4.26-0.87-5.93
	C123,38.78,123.14,36.5,123.14,36.5"/>
<path class="st5" d="M177.21,284.01c-5.47-6.12-8.6-13.16-9.15-19.33c0.01,1.36,0.07,2.74,0.22,4.14
	c1.88,17.68,14.17,30.92,27.45,29.58c3.68-0.37,7.04-1.85,9.95-4.13C198.1,298.06,186.1,293.96,177.21,284.01"/>
<path class="st12" d="M204.46,181.78c-2.87-5.69-9.63-5.65-9.63-5.65s3.55,0.95,5.52,2.21c1.97,1.26,3.41,2.77,4.21,3.57"/>
<path class="st12" d="M214.78,96.11c-2.19-14.76-7.34-14.65-7.34-14.65s2.71,2.46,4.2,5.72c1.5,3.26,2.59,7.17,3.2,9.25"/>
</svg>
